# Blender v2.80 (sub 75) OBJ File: 'occulus.blend'
# www.blender.org
mtllib occulus.mtl
o Cylinder.000_Cylinder.009
v 0.000008 0.053769 -0.282428
v -0.165820 -0.053973 -0.228562
v 0.102472 -0.228304 -0.141373
v 0.165819 -0.053973 -0.228547
v 0.165805 -0.228304 0.053543
v -0.268288 -0.053973 0.086851
v -0.102474 -0.228304 -0.141373
v -0.165806 -0.228304 0.053543
v -0.165820 0.053769 0.227901
v -0.000001 -0.052405 0.284872
v -0.000000 -0.228304 0.174007
v 0.165805 0.054738 0.229807
v 0.102473 0.228100 0.140712
v 0.268292 0.053769 -0.087495
v 0.268301 -0.053973 0.086846
v 0.165805 0.228100 -0.054204
v -0.268294 0.053769 -0.087495
v -0.102474 0.228100 0.140712
v -0.165806 0.228100 -0.054204
v -0.000001 0.228100 -0.174669
vt 0.999963 0.640622
vt 0.000348 0.617232
vt 0.209697 0.000209
vt 0.784435 0.000454
vt 0.999963 0.640622
vt 0.500044 1.000026
vt 0.500072 1.000011
vt 0.209697 0.000209
vt 0.999963 0.640622
vt 0.784435 0.000454
vt 0.999963 0.644528
vt 0.491255 1.000026
vt 0.784435 0.000454
vt 0.500044 1.000026
vt 0.000348 0.617232
vt 0.999963 0.640622
vt 0.000348 0.617232
vt 0.209697 0.000209
vt 0.500044 1.000026
vt 0.000348 0.617232
vt 0.209697 0.000209
vt 0.784435 0.000454
vt 0.999963 0.640622
vt 0.500044 1.000026
vt 0.500072 1.000011
vt 0.000348 0.617232
vt 0.209697 0.000209
vt 0.209697 0.000209
vt 0.784435 0.000454
vt 0.000348 0.617232
vt 0.209697 0.000209
vt 0.784435 0.000454
vt 0.209697 0.000209
vt 0.784435 0.000454
vt 0.999963 0.640622
vt 0.500044 1.000026
vt 0.000348 0.617232
vt 0.209697 0.000209
vt 0.000348 0.617232
vt 0.784435 0.000454
vt -0.000629 0.619185
vt 0.201885 0.000209
vt 0.209697 0.000209
vt 0.999963 0.640622
vt 0.784435 0.000454
vt 0.500072 1.000011
vt 0.000361 0.617235
vt 0.209697 0.000209
vt 0.784435 0.000454
vt 0.999963 0.640622
vt 0.500044 1.000026
vt 0.000348 0.617232
vt 0.999963 0.640622
vt 0.500044 1.000026
vn -0.0000 -0.4473 -0.8944
vn 0.0000 -1.0000 0.0000
vn 0.8506 -0.4473 -0.2764
vn -0.8506 -0.4473 -0.2763
vn -0.5257 -0.4473 0.7236
vn 0.5269 -0.4507 0.7205
vn 0.0000 0.4571 0.8894
vn -0.0000 1.0000 0.0000
vn 0.8506 0.4473 0.2764
vn -0.8506 0.4473 0.2763
vn -0.5257 0.4473 -0.7236
vn 0.5257 0.4473 -0.7236
vn 0.0001 -0.4473 -0.8944
vn 0.8506 -0.4473 -0.2763
vn 0.8506 -0.4473 -0.2765
vn -0.8506 -0.4473 -0.2764
vn -0.5343 -0.4507 0.7151
vn 0.5303 -0.4521 0.7172
vn 0.5257 -0.4473 0.7236
vn -0.0169 0.4521 0.8918
vn 0.8519 0.4494 0.2690
vn -0.8506 0.4473 0.2764
vn -0.8506 0.4472 0.2764
vn -0.5258 0.4473 -0.7235
vn 0.5258 0.4473 -0.7236
usemtl Occulus
s off
f 1/1/1 3/2/1 7/3/1
f 8/4/2 7/5/2 3/6/2
f 3/7/3 14/8/3 5/9/3
f 17/10/4 2/11/4 7/12/4
f 11/13/5 9/14/5 6/15/5
f 11/16/6 15/17/6 12/18/6
f 12/19/7 13/20/7 18/21/7
f 19/22/8 18/23/8 13/24/8
f 14/25/9 16/26/9 13/27/9
f 6/28/10 9/29/10 18/23/10
f 20/30/11 1/31/11 2/32/11
f 16/33/12 14/34/12 4/35/12
f 7/3/13 2/32/13 1/1/13
f 1/1/1 4/36/1 3/2/1
f 3/6/2 5/37/2 11/38/2
f 11/38/2 8/4/2 3/6/2
f 4/39/14 14/8/14 3/7/14
f 14/8/15 15/40/15 5/9/15
f 7/12/16 8/41/16 17/10/16
f 8/41/16 6/42/16 17/10/16
f 6/15/5 8/43/5 11/13/5
f 11/13/17 10/44/17 9/14/17
f 12/18/18 10/45/18 11/16/18
f 11/16/19 5/46/19 15/17/19
f 18/21/20 9/29/20 10/44/20
f 10/44/7 12/19/7 18/21/7
f 13/24/8 16/47/8 20/48/8
f 20/48/8 19/22/8 13/24/8
f 12/49/21 15/50/21 13/27/21
f 15/50/9 14/25/9 13/27/9
f 18/23/22 19/51/22 17/52/22
f 17/52/23 6/28/23 18/23/23
f 17/53/24 19/51/24 2/32/24
f 19/51/11 20/30/11 2/32/11
f 4/35/25 1/54/25 20/30/25
f 20/30/12 16/33/12 4/35/12
